<svg xmlns="http://www.w3.org/2000/svg" viewBox="0 0 200 250" width="400" height="500">
  <defs>
    <linearGradient id="hull_cyan" x1="0%" y1="0%" x2="100%" y2="0%">
      <stop offset="0%" stop-color="#cbd5e1"/><stop offset="50%" stop-color="#ffffff"/><stop offset="100%" stop-color="#94a3b8"/>
    </linearGradient>
    <radialGradient id="energy_cyan" cx="50%" cy="50%" r="50%">
      <stop offset="0%" stop-color="#ffffff"/><stop offset="100%" stop-color="#00ffff"/>
    </radialGradient>
  </defs>
  <path d="M92 195 L108 195 L100 240 Z" fill="#00ffff" opacity="0.6" />
  <path d="M100 5 L135 120 L125 195 L75 195 L65 120 Z" fill="#0f172a" />
  <g stroke="#0f172a" stroke-width="1.2" stroke-linejoin="round">
    <!-- Flügel Rechts -->
    <path d="M125 120 L190 165 L175 195 L130 185 L135 210 L110 195 Z" fill="url(#hull_cyan)" />
    <path d="M135 140 L170 160 L140 165 Z" fill="#00ffff" opacity="0.4" stroke="none" />
    <!-- Gabel-Spitze Rechts (Pfeilscharf) -->
    <path d="M112 5 L122 100 L110 120 L102 120 Z" fill="url(#hull_cyan)" />
    <path d="M102 125 L122 135 L118 160 L102 160 Z" fill="url(#hull_cyan)" />
  </g>
  <g stroke="#0f172a" stroke-width="1.2" stroke-linejoin="round">
    <!-- Flügel Links -->
    <path d="M75 120 L10 165 L25 195 L70 185 L65 210 L90 195 Z" fill="url(#hull_cyan)" />
    <path d="M65 140 L30 160 L60 165 Z" fill="#00ffff" opacity="0.4" stroke="none" />
    <!-- Gabel-Spitze Links (Pfeilscharf) -->
    <path d="M88 5 L78 100 L90 120 L98 120 Z" fill="url(#hull_cyan)" />
    <path d="M98 125 L78 135 L82 160 L98 160 Z" fill="url(#hull_cyan)" />
  </g>
  <path d="M95 85 L105 85 L110 130 L100 155 L90 130 Z" fill="url(#energy_cyan)" stroke="#0f172a" stroke-width="2" />
  <g stroke="#1e293b" stroke-width="0.7" fill="none" stroke-linecap="round">
    <path d="M93 30 L95 55 M107 30 L105 55" />
    <path d="M80 145 L120 145 M80 155 L120 155 M85 175 L115 175" />
  </g>
</svg>
